HIERARCHY
ROOT Hips
{
  OFFSET 196.326 95.9168 97.7182
  CHANNELS 6 Xposition Yposition Zposition Zrotation Xrotation Yrotation
  JOINT LeftUpLeg
  {
    OFFSET 8.64259 1.95398 -2.38835
    CHANNELS 3 Zrotation Xrotation Yrotation
    JOINT LeftLeg
    {
      OFFSET 43.7702 0 0
      CHANNELS 3 Zrotation Xrotation Yrotation
      JOINT LeftFoot
      {
        OFFSET 40.6238 0 0
        CHANNELS 3 Zrotation Xrotation Yrotation
        JOINT LeftToeBase
        {
          OFFSET 12.7242 0 0
          CHANNELS 3 Zrotation Xrotation Yrotation
          End Site
          {
            OFFSET 0 0 0
          }
        }
      }
    }
  }
  JOINT RightUpLeg
  {
    OFFSET -8.2249 1.95398 -2.59336
    CHANNELS 3 Zrotation Xrotation Yrotation
    JOINT RightLeg
    {
      OFFSET 43.5653 0 0
      CHANNELS 3 Zrotation Xrotation Yrotation
      JOINT RightFoot
      {
        OFFSET 40.6238 0 0
        CHANNELS 3 Zrotation Xrotation Yrotation
        JOINT RightToeBase
        {
          OFFSET 12.7242 0 0
          CHANNELS 3 Zrotation Xrotation Yrotation
          End Site
          {
            OFFSET 0 0 0
          }
        }
      }
    }
  }
  JOINT Spine
  {
    OFFSET 0.165834 0.87714 6.61349
    CHANNELS 3 Zrotation Xrotation Yrotation
    JOINT Spine1
    {
      OFFSET 7.38963 1.71661e-005 0
      CHANNELS 3 Zrotation Xrotation Yrotation
      JOINT Spine2
      {
        OFFSET 11.9445 1.14441e-005 0
        CHANNELS 3 Zrotation Xrotation Yrotation
        JOINT Spine3
        {
          OFFSET 14.7254 4.19617e-005 0
          CHANNELS 3 Zrotation Xrotation Yrotation
          JOINT Spine4
          {
            OFFSET 10.9679 0 0
            CHANNELS 3 Zrotation Xrotation Yrotation
            JOINT RightShoulder
            {
              OFFSET 2.46616 -1.6653 3.69651
              CHANNELS 3 Zrotation Xrotation Yrotation
              JOINT RightArm
              {
                OFFSET 13.0012 0 0
                CHANNELS 3 Zrotation Xrotation Yrotation
                JOINT RightForeArm
                {
                  OFFSET 28.7848 1.52588e-005 0
                  CHANNELS 3 Zrotation Xrotation Yrotation
                  JOINT RightHand
                  {
                    OFFSET 26.5688 1.52588e-005 0
                    CHANNELS 3 Zrotation Xrotation Yrotation
                    End Site
                    {
                      OFFSET 0 0 0
                    }
                  }
                }
              }
            }
            JOINT LeftShoulder
            {
              OFFSET 2.38034 -1.29275 -3.75231
              CHANNELS 3 Zrotation Xrotation Yrotation
              JOINT LeftArm
              {
                OFFSET 16.3182 6.10351e-005 0
                CHANNELS 3 Zrotation Xrotation Yrotation
                JOINT LeftForeArm
                {
                  OFFSET 27.0901 0 0
                  CHANNELS 3 Zrotation Xrotation Yrotation
                  JOINT LeftHand
                  {
                    OFFSET 24.5451 1.52588e-005 0
                    CHANNELS 3 Zrotation Xrotation Yrotation
                    End Site
                    {
                      OFFSET 0 0 0
                    }
                  }
                }
              }
            }
            JOINT Neck
            {
              OFFSET 5.0226 -0.0266342 0
              CHANNELS 3 Zrotation Xrotation Yrotation
              JOINT Head
              {
                OFFSET 6.69363 2.86102e-005 0
                CHANNELS 3 Zrotation Xrotation Yrotation
                End Site
                {
                  OFFSET 0 0 0
                }
              }
            }
          }
        }
      }
    }
  }
}
MOTION
Frames:	18
Frame Time:	0.0416667
-59.3293 97.2887 19.7855 -52.8218 -84.7626 -52.7709 -172.142 6.15897 90.4448 -5.91569 7.04388 -0.877382 58.8635 4.3993 13.3399 35.1886 6.83837 -31.8348 177.791 8.01388 89.8779 -11.0853 8.70733 0.301683 63.4154 -1.35459 -0.69465 29.5604 -1.02617 18.8824 -0.00540147 6.79233 -89.9861 13.2892 -0.00395807 0.0282869 1.61826 -0.00270547 0.0284248 -20.9169 -0.0122713 0.0257915 -0.904251 -0.0122761 0.0257906 79.1708 -50.3047 -116.991 26.7404 -9.9052 7.78198 -4.09105 -10.0347 -41.4867 -7.12059 -0.634804 4.6769 -103.499 -41.6462 55.2254 -31.4969 8.32516 6.79209 3.39597 6.73824 -31.816 11.3307 0.861513 3.54106 17.3303 1.98716 0.992131 -5.2402 1.65956 1.67726 
-59.1619 97.2513 20.0086 -45.7959 -84.2664 -44.9383 -172.047 7.05968 91.0236 -6.05206 7.46357 -0.830831 59.2262 5.02404 14.2175 35.3087 6.89772 -33.8752 178.149 8.26366 90.5296 -10.2535 8.66664 0.429303 63.0871 -1.49358 -0.789723 29.4211 -1.03464 18.4738 0.00487282 6.70152 -90.0746 13.4708 -0.0264206 -0.14609 1.7999 -0.0328251 -0.144794 -20.7352 0.0187102 -0.147274 -0.722554 0.0187094 -0.147279 79.3046 -50.3511 -116.775 26.5754 -10.3989 7.08009 -3.29811 -11.5195 -39.4789 -8.30722 -0.681381 3.92065 -103.606 -41.6448 55.061 -31.2735 8.47044 6.58986 3.33152 6.77901 -31.7319 11.5277 0.820609 3.09412 16.7756 2.02245 0.57927 -4.87002 1.82578 1.83963 
-59.0893 97.2367 20.1337 -44.1779 -84.0261 -42.8816 -171.917 7.43055 91.4198 -6.18616 7.91006 -0.875325 59.1241 5.07439 14.7321 36.409 7.5046 -36.1848 178.319 8.04336 90.9002 -9.4084 8.93647 0.520077 62.8304 -1.58327 -0.845332 29.6221 -0.999394 18.6018 0.0024953 6.67801 -90.1462 13.5176 -0.0658594 -0.284371 1.84663 -0.0783091 -0.281201 -20.6883 0.0226449 -0.291021 -0.675634 0.0226503 -0.291017 79.1164 -50.3897 -117.035 26.1342 -10.5637 6.85479 -2.66011 -11.5386 -38.7718 -9.00234 -0.706525 3.60834 -103.62 -41.827 55.1298 -31.1463 8.47425 6.38426 3.24408 6.58359 -31.7632 11.467 0.839807 3.28416 16.6777 2.13907 0.819833 -4.74666 1.87044 1.68968 
-59.098 97.2667 20.126 -45.8442 -84.0224 -44.5529 -171.888 7.24996 91.4163 -6.09325 7.73287 -0.871461 59.1487 5.09975 14.5824 35.676 7.09428 -35.4442 178.399 8.1002 90.9302 -9.69783 8.8126 0.397377 62.8579 -1.55289 -0.825029 29.3723 -1.06003 18.7004 0.00616112 6.69819 -90.1604 13.4772 -0.0654124 -0.312869 1.80627 -0.0791198 -0.309685 -20.7286 0.0316379 -0.318061 -0.715956 0.0316399 -0.318062 79.0925 -50.3778 -117.076 26.0965 -10.4261 6.85756 -2.46642 -11.4054 -38.6523 -9.08501 -0.696176 3.39269 -103.725 -41.863 54.985 -31.0745 8.54613 6.51802 3.3788 6.7388 -32.1998 11.7205 0.874092 3.42157 16.3638 2.26857 0.797656 -4.28705 2.01274 1.68633 
-59.118 97.2745 20.1668 -46.1505 -83.903 -44.8083 -171.885 7.26579 91.4518 -6.07669 7.68607 -0.834846 59.1831 5.10232 14.5095 35.2772 6.87031 -34.4464 178.411 8.21781 90.978 -9.83389 8.65582 0.414303 62.6251 -1.48346 -0.782589 29.6649 -0.972111 18.3614 0.0126706 6.70471 -90.1775 13.4642 -0.0607467 -0.347624 1.79319 -0.0759979 -0.344628 -20.7416 0.046529 -0.349819 -0.72894 0.0465343 -0.349815 79.5345 -50.2684 -116.471 26.3647 -10.157 6.52913 -2.7908 -11.8311 -38.5387 -8.98174 -0.727315 3.91975 -103.875 -41.9046 54.7765 -30.8824 8.42274 6.60876 3.60499 6.95066 -32.4246 11.317 0.870783 3.62596 16.2635 2.21676 0.503369 -4.49243 2.05913 2.53722 
-59.1535 97.2561 20.2307 -47.0376 -83.7604 -45.7075 -171.786 7.353 91.4942 -6.32261 7.46187 -0.923655 59.5585 5.25299 14.325 34.877 6.63074 -34.6162 178.416 7.97308 91.0209 -9.3191 9.07329 0.442885 62.8592 -1.58928 -0.843447 29.204 -1.14728 19.4946 -0.00316262 6.70111 -90.1785 13.4684 -0.0926639 -0.345572 1.79738 -0.107789 -0.341163 -20.7374 0.015471 -0.357454 -0.724749 0.0154707 -0.357451 79.1361 -50.3849 -117.009 26.349 -9.97701 6.80879 -2.65534 -11.465 -38.7791 -8.46016 -0.694657 3.98792 -103.558 -41.925 55.2714 -30.9634 8.4641 6.5279 3.53313 6.84328 -32.3449 11.2421 0.88863 3.81558 16.1081 2.45982 0.729327 -4.55115 2.22607 2.23393 
-59.1713 97.2532 20.2762 -46.499 -83.7002 -45.2992 -171.879 7.2084 91.3672 -5.93631 7.43958 -0.876202 59.1577 5.15691 14.5548 36.2922 7.4588 -35.298 178.323 8.39895 90.8658 -10.0769 8.37298 0.453902 62.6963 -1.45439 -0.765113 30.1207 -0.853677 18.1049 -0.00992393 6.6971 -90.1616 13.481 -0.097893 -0.310975 1.81006 -0.11149 -0.30637 -20.7248 9.14979e-005 -0.326017 -0.712142 8.69129e-005 -0.326025 79.1956 -50.6849 -116.799 26.2062 -10.1491 6.7092 -2.87851 -11.793 -38.495 -8.9574 -0.721175 3.85369 -103.612 -41.8237 55.1393 -30.8389 8.54149 6.67048 3.33388 6.67503 -32.067 11.053 0.808386 3.25707 15.9172 2.50809 0.600492 -4.58502 2.31498 2.50731 
-59.2296 97.2387 20.2946 -47.5621 -83.6876 -46.4397 -171.804 7.10491 91.3468 -6.00794 7.21252 -0.934473 59.5933 5.4442 14.2413 34.286 6.28077 -34.7764 178.304 8.21398 90.8722 -9.84693 9.14473 0.469589 63.086 -1.59038 -0.842905 29.3834 -1.12942 19.858 -0.00923849 6.70218 -90.1544 13.4691 -0.0930541 -0.297272 1.79816 -0.106048 -0.292903 -20.7367 0.000590075 -0.311495 -0.724081 0.000586002 -0.311503 79.1879 -50.5931 -116.847 26.4367 -10.2901 6.91377 -3.05447 -11.8704 -38.4574 -9.05787 -0.726223 3.8183 -103.552 -41.7396 55.1904 -30.9477 8.34324 6.89192 3.42863 6.61662 -32.1404 10.9075 0.778753 3.08552 15.674 2.51513 0.606488 -4.42498 2.33227 2.83207 
-59.2427 97.2146 20.3535 -47.9034 -83.6416 -46.8319 -171.797 7.13621 91.3409 -6.04948 7.41655 -0.991286 59.1266 5.14976 14.6304 35.6377 7.06806 -35.7576 178.256 8.20985 90.844 -9.92265 9.10356 0.496586 63.2582 -1.67186 -0.89117 29.4139 -1.12292 19.9318 -0.00545775 6.70706 -90.1576 13.4596 -0.0871213 -0.304494 1.78858 -0.100436 -0.300368 -20.7463 0.00841725 -0.316603 -0.733638 0.00842016 -0.316598 78.8812 -50.8195 -117.203 26.1304 -10.2765 7.0491 -2.65941 -11.5039 -38.2665 -9.26768 -0.719732 3.55095 -103.675 -41.7941 55.0288 -30.8982 8.15819 7.07415 3.496 6.58172 -32.1533 10.7912 0.78852 3.23754 15.7133 2.49421 0.808267 -4.71086 2.24737 2.74818 
-59.3017 97.2273 20.3952 -48.1205 -83.751 -47.0938 -171.795 7.0151 91.3255 -6.09685 7.17057 -0.959666 59.4297 5.41787 14.3939 35.582 7.04048 -35.388 178.275 8.2268 90.8469 -10.1608 9.17649 0.457884 63.2077 -1.61331 -0.855103 29.5994 -1.06238 19.6556 -0.0268313 6.73237 -90.1469 13.4089 -0.124236 -0.278204 1.73793 -0.136367 -0.272477 -20.797 -0.0348809 -0.302678 -0.784349 -0.0348895 -0.302687 78.9259 -50.5468 -117.25 26.5327 -10.3633 7.02811 -3.22381 -12.2759 -38.4256 -9.31495 -0.747764 3.86018 -103.278 -41.6424 55.5649 -31.0342 8.26344 7.01594 3.3126 6.29906 -32.1429 10.8978 0.763528 2.96183 15.8182 2.52184 0.768152 -4.97187 2.27675 2.67627 
-59.3142 97.1993 20.4597 -47.3901 -83.8268 -46.2911 -171.853 7.15633 91.3461 -6.44362 7.3506 -0.888011 59.6728 5.53229 14.4032 34.621 6.47825 -35.1418 178.274 8.07066 90.9137 -9.97678 9.31153 0.501177 63.3609 -1.7177 -0.919042 29.4812 -1.1197 20.1006 -0.0188584 6.73978 -90.1613 13.3941 -0.115413 -0.308323 1.72309 -0.128868 -0.302947 -20.8118 -0.0174198 -0.328756 -0.799126 -0.0174178 -0.328758 79.2063 -50.5394 -116.843 26.5936 -10.2713 6.96038 -3.16944 -12.2402 -38.375 -9.46414 -0.756345 3.84248 -103.429 -41.6707 55.3458 -31.0428 8.08208 6.94002 3.4062 6.40547 -31.9272 10.8802 0.750677 2.86142 15.7374 2.4449 0.675091 -4.94749 2.23164 2.84334 
-59.3582 97.1976 20.4674 -46.3566 -83.8415 -45.3921 -171.958 7.11405 91.2143 -6.26712 7.1394 -0.813647 59.6656 5.55371 14.2512 34.3346 6.30997 -35.3879 178.245 8.34127 90.8118 -10.3846 9.10513 0.477563 63.3733 -1.66187 -0.887371 29.7013 -1.03377 19.5515 -0.0247739 6.73052 -90.1441 13.4126 -0.118847 -0.273417 1.74162 -0.13076 -0.267934 -20.7933 -0.0311826 -0.296496 -0.780674 -0.0311751 -0.296502 79.0808 -50.6375 -116.986 26.5649 -10.2079 7.14075 -3.21491 -12.1463 -38.4545 -8.99245 -0.720904 3.79676 -103.359 -41.6308 55.4344 -31.1223 8.14519 6.94671 3.31608 6.33057 -31.8427 10.7051 0.764222 3.0769 15.5586 2.29359 0.519661 -4.91141 2.13058 2.89654 
-59.4234 97.2234 20.5147 -45.7819 -83.9623 -44.7103 -171.978 7.18979 91.3282 -6.47183 7.41124 -0.754677 59.5599 5.40832 14.3108 35.6266 7.08822 -33.7111 178.372 8.04266 90.9752 -9.95351 9.55776 0.414074 63.4288 -1.74082 -0.932725 29.2812 -1.16556 20.1065 -0.0392456 6.73896 -90.1669 13.3956 -0.158546 -0.313983 1.72465 -0.172203 -0.306713 -20.8102 -0.0568523 -0.347114 -0.797572 -0.0568459 -0.347113 79.1578 -50.5474 -116.91 26.4693 -10.2779 7.05895 -3.28184 -12.2724 -38.4762 -9.8973 -0.834751 4.4885 -103.167 -41.6935 55.7597 -31.2889 8.22502 6.79785 3.36971 6.5545 -31.7894 10.6785 0.74589 2.93248 15.4876 2.23858 0.884335 -4.92474 1.97066 2.44956 
-59.4322 97.1946 20.5726 -45.9063 -83.855 -44.8554 -171.874 7.1101 91.3735 -6.24192 7.31607 -0.860277 59.5317 5.43323 14.2892 36.1372 7.39215 -33.9652 178.331 8.19426 90.9556 -10.2028 9.31857 0.448733 63.3071 -1.64986 -0.877417 29.7699 -1.02177 19.6495 -0.0114835 6.73455 -90.1614 13.3989 -0.100799 -0.310495 1.72791 -0.114369 -0.305758 -20.807 -0.00282646 -0.326432 -0.794307 -0.00282859 -0.326437 79.1518 -50.4776 -116.947 26.5329 -10.3691 7.16795 -3.28573 -12.138 -38.6898 -10.2093 -0.870217 4.63614 -103.466 -41.5897 55.2497 -31.3177 8.01898 7.05809 3.45596 6.47079 -31.8762 10.7706 0.745636 2.87839 15.5599 2.20258 0.721619 -5.06847 1.98031 2.72507 
-59.4532 97.2041 20.6182 -45.072 -83.9004 -44.0089 -171.973 7.21997 91.3363 -6.47263 7.46582 -0.761217 59.6351 5.48602 14.3709 35.2881 6.88466 -33.5574 178.314 8.01583 90.9695 -9.87303 9.51434 0.490695 63.4528 -1.76136 -0.945703 29.4696 -1.12371 20.1688 -0.0252363 6.73503 -90.1681 13.3904 -0.131313 -0.320112 1.71941 -0.145277 -0.314022 -20.8154 -0.0290422 -0.344778 -0.802793 -0.0290449 -0.344787 79.1242 -50.3304 -117.048 26.5621 -10.2882 7.26935 -3.46336 -11.929 -38.9986 -8.74013 -0.739876 4.34039 -103.319 -41.6983 55.5292 -31.3369 8.06458 6.95056 3.57669 6.76098 -31.9312 10.9173 0.785596 3.14039 15.8008 2.4506 0.804596 -5.2418 2.19277 2.79112 
-59.486 97.2215 20.6716 -44.673 -83.8934 -43.6616 -171.99 7.05021 91.3088 -6.11116 7.54626 -0.760042 59.3822 5.32285 14.2188 35.9206 7.28426 -32.6429 178.359 8.09551 90.97 -9.983 9.63925 0.429638 63.3409 -1.68514 -0.897838 29.5143 -1.09823 19.9229 -0.020177 6.7383 -90.1664 13.3907 -0.120526 -0.318063 1.71973 -0.134405 -0.312459 -20.8151 -0.0193657 -0.339583 -0.802478 -0.0193597 -0.339583 79.1759 -50.377 -116.954 26.349 -10.1981 7.03757 -2.78481 -11.4965 -38.6962 -8.99321 -0.739907 4.10465 -103.445 -41.7511 55.3606 -31.3413 8.08931 7.00415 3.53706 6.71962 -31.8653 10.8892 0.721711 2.60877 15.8254 2.57944 0.935129 -5.29712 2.28063 2.83036 
-59.5121 97.2018 20.7464 -45.7261 -83.7434 -44.5727 -171.934 7.1919 91.4695 -6.44335 7.47023 -0.730656 59.4389 5.29898 14.3465 36.5364 7.63938 -33.6556 178.4 7.98983 91.0949 -9.82907 9.45111 0.454624 63.5048 -1.78239 -0.957324 29.3784 -1.1493 20.2266 0.00817212 6.74341 -90.1817 13.3868 -0.0715795 -0.354682 1.71579 -0.0871284 -0.351189 -20.819 0.0383192 -0.3598 -0.806341 0.0383142 -0.359809 79.3611 -50.1684 -116.767 26.5513 -10.4119 6.95822 -3.15752 -11.6688 -38.8506 -8.37729 -0.708227 4.26715 -103.604 -41.7482 55.1148 -31.3037 8.02176 7.2202 3.61483 6.73491 -32.0595 11.0375 0.745987 2.7366 15.6812 2.57192 0.992537 -5.26885 2.26037 2.87025 
-59.5652 97.1965 20.7584 -46.4053 -83.7796 -45.2753 -171.859 7.21228 91.5094 -6.70512 7.34261 -0.78102 59.8043 5.44683 14.0581 35.4605 6.98321 -34.5389 178.361 7.9458 91.1155 -9.93472 9.466 0.505463 63.4081 -1.78303 -0.958375 29.8717 -1.01011 19.8756 0.00885225 6.75616 -90.1726 13.3614 -0.0657855 -0.33717 1.69036 -0.0805646 -0.333957 -20.8444 0.0385876 -0.341351 -0.831785 0.0385856 -0.341362 79.2826 -50.0603 -116.926 26.415 -10.8279 6.88484 -2.59894 -11.66 -38.8448 -9.09297 -0.760023 4.29001 -103.502 -41.7501 55.2729 -31.3294 8.0503 7.26704 3.55982 6.62732 -32.1108 10.8766 0.796132 3.25296 15.5411 2.49021 1.10716 -5.38733 2.14804 2.85398 
